<?xml version="1.0" encoding="UTF-8"?>
<svg width="79.37" height="79.37" version="1.1" viewBox="0 0 79.370079 79.370079" xmlns="http://www.w3.org/2000/svg" xmlns:cc="http://creativecommons.org/ns#" xmlns:dc="http://purl.org/dc/elements/1.1/" xmlns:rdf="http://www.w3.org/1999/02/22-rdf-syntax-ns#">
<metadata>
<rdf:RDF>
<cc:Work rdf:about="">
<dc:format>image/svg+xml</dc:format>
<dc:type rdf:resource="http://purl.org/dc/dcmitype/StillImage"/>
<dc:title/>
</cc:Work>
</rdf:RDF>
</metadata>
<defs>
<filter id="a" color-interpolation-filters="sRGB">
<feGaussianBlur result="blur" stdDeviation="0.5 0.5"/>
</filter>
</defs>
<path d="m1.1885 38.1v-39.685h79.37v79.37h-79.37z" fill="#f8fdfe" stroke-width=".12598"/>
<path d="m1.1885 38.1v-39.685h79.37v79.37h-79.37zm55.155 7.5667c0.22699-0.0651 1.2471-0.69895 2.2669-1.4086 3.577-2.489 3.8352-2.7527 3.5682-3.644-0.07721-0.2577-0.95177-1.6233-1.9435-3.0347-0.9917-1.4114-1.8997-2.7139-2.0178-2.8944-0.29891-0.45713-0.59179-2.0465-0.69863-3.7913-0.09719-1.5872-0.26612-1.9906-0.83368-1.9906-0.56 0-0.7385 0.41044-0.83886 1.9288-0.05124 0.77536-0.13205 1.8707-0.17956 2.4341-0.11543 1.3686 0.06667 1.8641 1.3045 3.5496 2.5185 3.4293 2.654 3.7213 2.0342 4.3832-0.57474 0.61381-2.1269 1.5627-2.5512 1.5598-0.55146-0.0039-0.76864-0.21642-2.024-1.9808-0.6037-0.84846-1.2102-1.6029-1.3479-1.6766-0.43744-0.23411-1.1316-0.09386-1.4137 0.28564-0.22481 0.30238-0.23712 0.39922-0.10631 0.83583 0.15133 0.50508 2.633 4.1524 3.3433 4.9135 0.33545 0.35949 0.71045 0.60939 0.9616 0.64082 0.0351 0.0044 0.24954-0.04528 0.47653-0.11038z" fill="#a90404" filter="url(#a)" stroke-width=".12598"/>
<path d="m1.1885 38.1v-39.685h79.37v79.37h-79.37zm33.888 22.646c-1e-3 -0.08661-0.62949-0.89449-1.3966-1.7953-4.9698-5.8355-7.8393-9.841-9.5669-13.354-1.0767-2.1897-1.5988-3.635-2.0365-5.6379-0.39562-1.8104-0.39118-5.6105 0.0091-7.8296 0.66468-3.6846 2.097-6.5591 4.4315-8.8936 1.8901-1.8901 5.827-4.2535 5.0807-3.0501-0.07314 0.11794-0.37108 0.34751-0.6621 0.51017s-0.6124 0.42284-0.71419 0.57818c-0.10261 0.15661-0.26827 0.99378-0.37183 1.879-0.29922 2.5579-0.60011 3.2138-2.6674 5.814-0.66108 0.8315-1.2897 1.6925-1.397 1.9134-0.1788 0.3682-0.17679 0.42949 0.02417 0.73619 0.26419 0.4032 1.0816 0.78369 2.0843 0.97015 1.0614 0.19739 2.2126-0.01966 3.4682-0.65389 0.55444-0.28006 1.0432-0.50921 1.086-0.50921 0.04288 0 0.22893 0.42526 0.41345 0.94503 0.18452 0.51977 0.58349 1.4794 0.88659 2.1324l0.5511 1.1874-0.26337 1.4266c-0.23047 1.2484-0.26438 1.9302-0.27149 5.4581-0.01072 5.3215 0.28889 7.4656 1.3362 9.5617 0.88723 1.7758 1.4476 2.2645 2.0182 1.7603 0.32164-0.28424 1.1605-2.027 1.3619-2.8293 0.0798-0.31799 0.21153-1.0833 0.29272-1.7008 0.0812-0.61744 0.20324-1.1162 0.27122-1.1083 0.06798 0.0078 0.5019 0.65396 0.96427 1.4358l0.84068 1.4215-0.19762 0.51696c-0.14054 0.36765-0.21351 1.1272-0.25262 2.6298-0.08507 3.2685 0.15673 3.4145 2.6316 1.5891 0.45887-0.33846 0.88407-0.61518 0.94488-0.61494 0.06082 2.52e-4 0.49906 0.33669 0.97388 0.74768 0.47482 0.41098 1.0701 0.84658 1.3228 0.96798 1.3532 0.65002 4.2965 0.17877 8.3441-1.336 6.1157-2.2887 10.815-5.8307 12.236-9.2222 0.23746-0.56696 0.28223-0.91628 0.29181-2.277l0.01131-1.6073 0.68011-0.86972c0.88444-1.131 2.2639-3.3348 2.8848-4.6086 0.95366-1.9566 1.337-3.7142 1.8978-8.7011 0.4228-3.7597 0.58702-6.3936 0.45396-7.281-0.07384-0.49241-0.14909-0.62037-0.4274-0.72676-0.65359-0.24985-2.8648 0.35967-5.8811 1.6211-3.3342 1.3944-5.0284 2.4498-6.6755 4.1587-0.48423 0.50236-0.94312 0.91339-1.0198 0.91339-0.07665 0-0.52111-0.45237-0.98769-1.0053-0.46659-0.5529-1.255-1.3681-1.752-1.8116-1.0581-0.94413-3.3576-2.6796-4.4167-3.3334-0.65716-0.40569-0.88208-0.66806-1.9801-2.3098-1.4503-2.1685-2.6288-3.6098-4.7116-5.7627-1.6681-1.7241-2.348-2.2812-2.7841-2.2812-0.57568 0-1.3805 1.4814-2.2585 4.1575l-0.5167 1.5748-0.68491 0.03158c-2.1154 0.09753-3.8109 0.51788-5.2203 1.2942-0.5537 0.30499-0.80522 0.35503-2.0787 0.41358-2.8511 0.13107-6.0019 1.0231-9.0709 2.568-2.1739 1.0944-3.8026 2.2327-5.2827 3.692-3.3518 3.3048-4.8191 7.2439-4.8105 12.914 0.0035 2.3283 0.23987 3.965 0.83638 5.7924 0.42694 1.3079 1.56 3.5614 2.2325 4.4402 0.30639 0.4004 0.84745 1.1283 1.2023 1.6176 0.8047 1.1094 3.479 3.7283 5.0661 4.9611 3.2087 2.4923 7.3745 4.8524 11.232 6.3633 1.4776 0.57873 1.9976 0.68718 1.9945 0.41596zm5.668-4.3232c-0.27093-0.7126-0.07531-4.4198 0.25111-4.7587 0.05589-0.05803 0.2639 0.10423 0.46225 0.36059 0.19834 0.25636 0.77165 0.97857 1.274 1.6049s0.91339 1.192 0.91339 1.257c0 0.23905-2.2626 1.8594-2.5964 1.8594-0.09985 0-0.23683-0.14542-0.30441-0.32316zm-4.4663-2.8981c-0.49043-0.52919-1.317-2.2469-1.5845-3.2929-0.504-1.9706-0.67121-3.8118-0.67842-7.4701-0.0073-3.7125 0.09435-4.8382 0.63531-7.0351 0.17644-0.71654 0.2804-1.3402 0.23102-1.3858-0.04938-0.04567-0.11509-0.01217-0.14602 0.07445-0.12278 0.3438-0.3948 0.1218-0.70922-0.57882-2.1952-4.8916-2.8616-11.364-1.4637-14.217 0.77427-1.5799 3.0148-2.6489 5.7021-2.7204 1.2251-0.03259 1.1744-0.19124 0.62092 1.9401-0.53424 2.0574-0.71353 3.5262-0.70561 5.7804 0.0091 2.589 0.38237 4.5794 1.2286 6.5512 0.05112 0.11912-0.17586 0.53029-0.61399 1.1122-0.86518 1.1492-1.5992 2.6559-1.9744 4.0531-0.23748 0.88428-0.28735 1.3892-0.28621 2.8976 0.0017 2.2168 0.31456 3.6462 1.3835 6.3203 0.77316 1.9342 0.79952 2.1581 0.49526 4.2072-0.25526 1.719-1.1103 3.8054-1.6434 4.0099-0.1157 0.0444-0.3133-0.05491-0.4912-0.24687zm20.469-0.08989c0-0.36988 2.5439-4.3309 3.1431-4.8939 0.38511-0.36189 1.4279-1.0189 2.7495-1.7323 1.171-0.63211 2.1668-1.1493 2.2127-1.1493 0.22203 0 0.01677 0.53771-0.69285 1.815-0.42704 0.76867-0.91193 1.5769-1.0775 1.7962-0.26162 0.34632-2.1201 1.7032-5.1213 3.739-0.88098 0.59761-1.2137 0.71419-1.2137 0.4253zm4.5219-3.5059c0.59644-0.63125 1.1293-1.2258 1.1842-1.3212 0.13419-0.23317-0.11924-0.68071-0.38546-0.68071-0.3167 0-2.675 2.3952-2.675 2.7168 0 0.34366 0.09885 0.43281 0.47987 0.43281 0.22968 0 0.59772-0.30251 1.3963-1.1477zm-16.742 0.31369c-3.3368-2.4751-3.1773-2.169-3.5863-6.8812-0.18799-2.1655-0.25565-3.5221-0.18495-3.7081 0.21619-0.56862 0.60622-0.36329 3.045 1.6031 3.0982 2.4981 2.931 2.1651 3.2752 6.5223 0.14189 1.7964 0.22062 3.4151 0.17496 3.597-0.15604 0.62173-0.61599 0.43038-2.7239-1.1332zm-0.14542-4.6569c0.53918-0.32185 0.81743-0.80005 0.86836-1.4924 0.08793-1.1952-0.75213-2.0154-1.9716-1.925-0.6071 0.04502-0.73462 0.10729-1.1654 0.56906-0.43168 0.46278-0.48366 0.58852-0.48366 1.1699 0 0.74755 0.33286 1.3987 0.86191 1.686 0.44949 0.24414 1.4755 0.24002 1.8903-0.0076zm22.514-4.2413c-0.02675-0.08661-0.14661-0.58268-0.26635-1.1024-1.0015-4.3465-3.6314-8.7879-6.5759-11.105-1.0221-0.80434-1.0555-0.84765-0.89172-1.1537 0.26456-0.49433 2.0927-2.2956 3.0661-3.0211 1.59-1.185 5.5851-3.012 8.318-3.804 1.1969-0.34684 1.7594-0.39749 1.8994-0.17101 0.24124 0.39034 0.04042 3.6233-0.52588 8.466-0.57792 4.942-1.0616 6.502-2.961 9.5505-1.3479 2.1634-1.9178 2.8101-2.0627 2.3408zm-23.062-6.7634c-1.5287-0.37174-2.8796-1.6029-3.7721-3.4378-1.0373-2.1324-1.3991-4.1998-1.2958-7.4051 0.08245-2.5597 0.34494-3.9525 1.3454-7.1395 1.1146-3.5505 1.9157-5.3357 2.4396-5.4366 0.24748-0.04766 2.9388 2.5819 4.5396 4.4354 1.6357 1.8939 3.9943 5.5441 5.1141 7.9145 1.1795 2.4968 1.6153 4.3286 1.379 5.7958-0.3078 1.9113-1.5253 3.0012-4.8898 4.3773-0.86087 0.35211-1.8895 0.72424-2.2859 0.82695-0.75212 0.19489-1.927 0.22641-2.5741 0.06904zm13.354-7.2537c-0.62362-0.30035-1.5307-0.64331-2.0157-0.76213-1.1833-0.28987-1.2673-0.34435-1.4902-0.96653-0.31529-0.87996-0.90367-2.2482-1.3283-3.0889-0.25333-0.50157-0.33987-0.78517-0.2384-0.78126 0.14817 0.0057 1.1641 0.72614 2.764 1.9601 0.91685 0.70713 3.0484 2.8329 3.4517 3.4423 0.29221 0.44156 0.32774 0.78534 0.07788 0.75358-0.04788-0.0061-0.59729-0.25681-1.2209-0.55716z" fill="#58523f" stroke-width=".12598"/>
<path d="m1.1885 38.1v-39.685h79.37v79.37h-79.37zm37.48 32c6.1407-0.55909 11.337-2.0768 14.74-4.305 1.1209-0.73396 2.3791-1.9129 2.2978-2.153-0.05792-0.17103 0.07714-0.17023-4.2506-0.02523-2.9048 0.09732-5.3609-0.01376-8.5669-0.38746-2.8887-0.33671-3.1255-0.43324-1.6693-0.68049 4.7815-0.81186 9.7166-3.0705 13.391-6.1289 1.134-0.94384 1.3905-1.2102 1.1036-1.1461-0.09021 0.02017-0.02229-0.02232 0.15094-0.09441 0.17323-0.07209 0.97693-0.45417 1.786-0.84906 4.703-2.2954 8.0444-5.1785 9.2003-7.9382 0.23746-0.56696 0.28223-0.91628 0.29181-2.277l0.01131-1.6073 0.68011-0.86972c0.88444-1.131 2.2639-3.3348 2.8848-4.6086 0.95366-1.9566 1.337-3.7142 1.8978-8.7011 0.4228-3.7597 0.58702-6.3936 0.45396-7.281-0.07384-0.49241-0.14909-0.62037-0.4274-0.72676-0.65359-0.24985-2.8648 0.35967-5.8811 1.6211-3.2836 1.3732-4.9531 2.4056-6.676 4.1281-0.48566 0.48554-0.68915 0.67173-0.45221 0.41376l0.4308-0.46902-0.56863-0.85471c-0.72761-1.0937-1.9363-2.587-2.6759-3.3061-0.31773-0.30892-0.57768-0.6292-0.57768-0.71175 0-0.08255 0.19747-0.44352 0.43882-0.80216 0.75777-1.126 1.2041-3.0054 1.4486-6.1002 0.45689-5.7826-0.39089-8.2652-2.8225-8.2652-1.4871 0-2.9807 0.87136-5.1546 3.0072-1.6384 1.6097-2.7879 3.0424-3.3765 4.2086l-0.38274 0.75819-1.5322-1.5128c-0.84269-0.83204-1.6723-1.6057-1.8437-1.7193-0.74273-0.4923-1.1561-0.13735-2.0216 1.7361-0.45357 0.98174-0.54229 1.0981-0.78974 1.036-0.15333-0.03848-1.1612-0.13167-2.2398-0.20709-2.9033-0.20302-6.3141 0.08695-8.9576 0.76154-0.53123 0.13556-0.99722 0.24647-1.0355 0.24647-0.03831 0-0.36466-0.43937-0.72522-0.97638-1.7858-2.6598-4.6482-5.7308-6.0018-6.4394-2.1373-1.1188-3.5985-0.38848-4.5023 2.2504-0.87423 2.5525-0.69028 8.3854 0.31578 10.013 0.13943 0.2256 0.25351 0.49463 0.25351 0.59783s-0.45083 0.59472-1.0018 1.0923c-3.1256 2.8223-5.7639 7.1347-6.8689 11.228-0.70916 2.6268-0.72223 2.8469-0.75168 12.66l-0.02722 9.0709 0.57676 0.55086c0.43844 0.41875 0.9842 0.72383 2.2756 1.2721l1.6989 0.72122 0.66666 1.1121c3.0259 5.0479 7.309 8.7429 12.653 10.916 1.7707 0.72003 4.3017 1.4014 5.9593 1.6044 0.62362 0.07635 1.2756 0.15928 1.4488 0.1843 0.68858 0.09947 3.4157 0.07258 4.7244-0.04658zm-3.8782-8.5029c-5.2864-1.6364-12.084-5.6347-15.827-9.3098-4.4505-4.3697-4.8651-4.9696-6.2472-9.0411-1.4892-4.3866-1.1089-10.679 0.90306-14.942 2.3921-5.0686 8.035-9.0375 15.033-10.574 1.1051-0.24258 1.9195-0.32972 3.4331-0.36739 1.0913-0.02716 1.9843-0.02233 1.9843 0.01073 0 0.03307-0.2126 0.16688-0.47244 0.29737-0.34535 0.17343-0.86219 0.25605-1.9213 0.30713-3.8283 0.18465-8.7611 1.9571-12.082 4.3414-4.8993 3.5173-7.092 8.1108-7.0818 14.836 0.0035 2.3283 0.23987 3.965 0.83638 5.7924 0.42694 1.3079 1.56 3.5614 2.2325 4.4402 0.30639 0.4004 0.84745 1.1283 1.2023 1.6176 0.8047 1.1094 3.479 3.7283 5.0661 4.9611 3.2351 2.5129 7.4411 4.8904 11.268 6.3693 1.5187 0.58695 1.962 0.67972 1.9589 0.40988-1e-3 -0.08661-0.62949-0.89449-1.3966-1.7953-4.9698-5.8355-7.8393-9.841-9.5669-13.354-1.0767-2.1897-1.5988-3.635-2.0365-5.6379-0.39562-1.8104-0.39118-5.6105 0.0091-7.8296 0.66312-3.6759 2.0986-6.5617 4.4157-8.8769 1.1399-1.139 2.8026-2.3562 4.1325-3.0251 0.87875-0.44201 1.043-0.47526 1.043-0.21116 0 0.1821-0.1657 0.32435-1.0079 0.86526-0.26405 0.16959-0.50127 0.45835-0.59132 0.71979-0.11471 0.33305-0.15206 0.36936-0.15748 0.15312-0.0039-0.15591-0.05491-0.28346-0.11334-0.28346-0.25001 0-1.9911 1.3455-2.8414 2.1958-2.5826 2.5826-4.037 5.9138-4.4787 10.258-0.74813 7.3578 1.8543 13.002 10.957 23.766 2.575 3.0448 3.1528 3.7785 3.1184 3.9604-0.05727 0.30293-0.67937 0.28389-1.7717-0.05424zm12.856-4.3102c0.15671-0.03013 0.38348-0.02899 0.50394 0.0025 0.12045 0.03153-0.0078 0.05619-0.28493 0.05479-0.27717-0.0014-0.37572-0.0272-0.219-0.05733zm1.3238-0.12419c0.12258-0.03194 0.29266-0.02984 0.37795 0.0047 0.0853 0.03451-0.015 0.06064-0.22287 0.05808-0.20787-0.0026-0.27766-0.0308-0.15508-0.06275zm-8.3923-0.26907c-0.11468-0.12672-0.2085-0.28106-0.2085-0.34299s0.08554 0.0095 0.19009 0.15878c0.10454 0.14926 0.31714 0.29589 0.47244 0.32584 0.26537 0.05118 0.26648 0.05548 0.01842 0.07161-0.14517 0.0094-0.35776-0.08652-0.47244-0.21324zm9.2167 0.14433c0.09094-0.03639 0.19961-0.03192 0.24147 0.0099 0.04186 0.04186-0.03255 0.07164-0.16536 0.06617-0.14676-6e-3 -0.17662-0.0359-0.07612-0.07612zm-8.2283-0.18895c0.13858-0.07775 0.40787-0.24996 0.59842-0.3827 0.19055-0.13273 0.34646-0.21117 0.34646-0.17431 0 0.1011-0.92146 0.7066-1.0686 0.7022-0.07053-0.0021-0.01485-0.06744 0.12373-0.1452zm8.8583 0.06297c0.09094-0.03639 0.19961-0.03192 0.24147 0.0099 0.04186 0.04186-0.03255 0.07164-0.16535 0.06617-0.14677-6e-3 -0.17662-0.0359-0.07612-0.07612zm-9.6803-0.48907c-0.27093-0.7126-0.07531-4.4198 0.25111-4.7587 0.05589-0.05803 0.2639 0.10423 0.46225 0.36059 0.19834 0.25636 0.77165 0.97857 1.274 1.6049s0.91339 1.192 0.91339 1.257c0 0.23905-2.2626 1.8594-2.5964 1.8594-0.09985 0-0.23683-0.14542-0.30441-0.32316zm10.688 0.2371c0.09094-0.03639 0.19961-0.03192 0.24147 0.0099 0.04186 0.04186-0.03255 0.07164-0.16535 0.06617-0.14677-6e-3 -0.17662-0.0359-0.07612-0.07611zm-6.5343-0.63835-0.43416-0.47244 0.47244 0.43416c0.25984 0.23879 0.47244 0.45139 0.47244 0.47244 0 0.0962-0.10661 0.0056-0.51072-0.43416zm-4.6053-1.4173c0-0.93543 0.01983-1.3181 0.04407-0.85039 0.02424 0.46772 0.02424 1.2331 0 1.7008-0.02424 0.46772-0.04407 0.08504-0.04407-0.85039zm2.3444 1.5983c0-0.03114 0.20813-0.21536 0.46251-0.40939 0.25438-0.19402 0.42274-0.28843 0.37414-0.2098-0.09968 0.16129-0.83665 0.7067-0.83665 0.61918zm1.1047-0.86365c0.07321-0.07321 0.20747-0.10832 0.29836-0.07802 0.09436 0.03145 0.03725 0.08856-0.13311 0.13311-0.20956 0.0548-0.25874 0.0384-0.16525-0.05509zm-7.4285-1.2449c-0.11749-0.06852-0.33904-0.30774-0.49232-0.5316-0.26248-0.38334-0.25273-0.37954 0.16762 0.06542 0.51483 0.54496 0.77208 0.58471 1.2231 0.18898l0.32308-0.28346-0.30542 0.34646c-0.32117 0.36431-0.56209 0.42065-0.91607 0.21422zm-0.0353-0.56929c-0.49043-0.52919-1.317-2.2469-1.5845-3.2929-0.504-1.9706-0.67121-3.8118-0.67842-7.4701-0.0073-3.7125 0.09435-4.8382 0.63531-7.0351 0.17644-0.71654 0.2804-1.3402 0.23102-1.3858-0.04938-0.04567-0.11509-0.01217-0.14602 0.07445-0.12278 0.3438-0.3948 0.1218-0.70922-0.57882-2.1952-4.8916-2.8616-11.364-1.4637-14.217 0.77427-1.5799 3.0148-2.6489 5.7021-2.7204 1.2251-0.03259 1.1744-0.19124 0.62092 1.9401-0.53424 2.0574-0.71353 3.5262-0.70561 5.7804 0.0091 2.589 0.38237 4.5794 1.2286 6.5512 0.05112 0.11912-0.17586 0.53029-0.61399 1.1122-0.86518 1.1492-1.5992 2.6559-1.9744 4.0531-0.23748 0.88428-0.28735 1.3892-0.28621 2.8976 0.0017 2.2168 0.31456 3.6462 1.3835 6.3203 0.77316 1.9342 0.79952 2.1581 0.49526 4.2072-0.25526 1.719-1.1103 3.8054-1.6434 4.0099-0.1157 0.0444-0.3133-0.05491-0.4912-0.24687zm20.469-0.08989c0-0.36988 2.5439-4.3309 3.1431-4.8939 0.38511-0.36189 1.4279-1.0189 2.7495-1.7323 1.171-0.63211 2.1668-1.1493 2.2127-1.1493 0.22203 0 0.01677 0.53771-0.69285 1.815-0.42704 0.76867-0.91193 1.5769-1.0775 1.7962-0.26162 0.34632-2.1201 1.7032-5.1213 3.739-0.88098 0.59761-1.2137 0.71419-1.2137 0.4253zm4.5219-3.5059c0.59644-0.63125 1.1293-1.2258 1.1842-1.3212 0.13419-0.23317-0.11924-0.68071-0.38546-0.68071-0.3167 0-2.675 2.3952-2.675 2.7168 0 0.34366 0.09885 0.43281 0.47987 0.43281 0.22968 0 0.59772-0.30251 1.3963-1.1477zm-23.6 3.1265c0.04731-0.12425 0.11776-0.19417 0.15654-0.15538 0.03879 0.03879 8.1e-5 0.14045-0.08602 0.22591-0.12442 0.1235-0.1389 0.10903-0.07053-0.07053zm-2.4648-0.46701c-0.1414-0.27717-0.22874-0.50394-0.1941-0.50394 0.03464 0 0.17868 0.22677 0.32008 0.50394 0.1414 0.27716 0.22874 0.50394 0.1941 0.50394-0.03465 0-0.17868-0.22677-0.32008-0.50394zm5.1852-0.25197c0-0.17323 0.0286-0.24409 0.06354-0.15748 0.03495 0.08661 0.03495 0.22835 0 0.31496-0.03495 0.08661-0.06354 0.01575-0.06354-0.15748zm-5.6687-0.69831c-0.21108-0.46328-0.17081-0.56212 0.05743-0.14095 0.10658 0.19668 0.17022 0.38117 0.1414 0.40998-0.02881 0.02881-0.11829-0.09225-0.19884-0.26903zm9.8063-1.3956c-3.3368-2.4751-3.1773-2.169-3.5863-6.8812-0.18799-2.1655-0.25565-3.5221-0.18495-3.7081 0.21619-0.56862 0.60622-0.36329 3.045 1.6031 3.0982 2.4981 2.931 2.1651 3.2752 6.5223 0.14189 1.7964 0.22062 3.4151 0.17496 3.597-0.15604 0.62173-0.61599 0.43038-2.7239-1.1332zm-0.14542-4.6569c0.53918-0.32185 0.81743-0.80005 0.86836-1.4924 0.08793-1.1952-0.75213-2.0154-1.9716-1.925-0.6071 0.04502-0.73462 0.10729-1.1654 0.56906-0.43168 0.46278-0.48366 0.58852-0.48366 1.1699 0 0.74755 0.33286 1.3987 0.86191 1.686 0.44949 0.24414 1.4755 0.24002 1.8903-0.0076zm-5.8919 5.4175c6e-3 -0.14676 0.0359-0.17662 0.07612-0.07612 0.03639 0.09094 0.03192 0.19961-0.0099 0.24147-0.04186 0.04186-0.07164-0.03255-0.06617-0.16535zm-4.0315-0.12598c6e-3 -0.14677 0.0359-0.17662 0.07611-0.07612 0.03639 0.09094 0.03192 0.19961-0.0099 0.24147-0.04186 0.04186-0.07164-0.03255-0.06617-0.16535zm4.1575-0.50394c6e-3 -0.14677 0.0359-0.17662 0.07611-0.07612 0.03639 0.09094 0.03192 0.19961-0.0099 0.24147-0.04186 0.04186-0.07164-0.03255-0.06617-0.16535zm1.5019-0.30446c-0.07417-0.13858-0.1065-0.25197-0.07186-0.25197 0.03465 0 0.12368 0.11339 0.19784 0.25197 0.07417 0.13858 0.1065 0.25197 0.07186 0.25197-0.03465 0-0.12368-0.11339-0.19784-0.25197zm-5.9113-0.19947c6e-3 -0.14677 0.0359-0.17662 0.07611-0.07612 0.03639 0.09094 0.03192 0.19961-0.0099 0.24147-0.04186 0.04186-0.07164-0.03255-0.06617-0.16535zm4.55-0.36746c0.0026-0.20787 0.0308-0.27766 0.06274-0.15508 0.03194 0.12258 0.02984 0.29266-0.0047 0.37795-0.03451 0.0853-0.06065-0.015-0.05808-0.22287zm0.98331-0.06299c-0.07417-0.13858-0.1065-0.25197-0.07186-0.25197 0.03465 0 0.12368 0.11339 0.19784 0.25197 0.07417 0.13858 0.1065 0.25197 0.07186 0.25197-0.03465 0-0.12368-0.11339-0.19784-0.25197zm-5.6593-0.19947c6e-3 -0.14677 0.0359-0.17662 0.07612-0.07612 0.03639 0.09094 0.03192 0.19961-0.0099 0.24147-0.04186 0.04186-0.07164-0.03255-0.06617-0.16535zm-0.11137-0.74541c0.0026-0.20787 0.0308-0.27766 0.06274-0.15508 0.03194 0.12258 0.02984 0.29266-0.0047 0.37795-0.03451 0.0853-0.06065-0.015-0.05808-0.22287zm4.9034 0.10192c-0.01882-0.35541 0.16469-0.46726 0.36688-0.22364 0.13082 0.15763 0.12432 0.17752-0.0377 0.11535-0.12474-0.04787-0.21733 0.0082-0.25517 0.1546-0.04881 0.18877-0.062 0.18052-0.07401-0.04631zm-5.0248-1.0468c0-0.24252 0.02593-0.34173 0.05762-0.22047s0.03169 0.31968 0 0.44094-0.05762 0.02205-0.05762-0.22047zm-0.1209-1.2598c0-0.31181 0.02457-0.43937 0.0546-0.28346 0.03003 0.15591 0.03003 0.41102 0 0.56693-0.03003 0.15591-0.0546 0.02835-0.0546-0.28346zm-0.10756-3.6535c0-1.3512 0.01853-1.9039 0.04119-1.2283 0.02265 0.67559 0.02265 1.7811 0 2.4567s-0.04119 0.12284-0.04119-1.2283zm33.277-1.2913c-0.02675-0.08661-0.14661-0.58268-0.26635-1.1024-1.0015-4.3465-3.6314-8.7879-6.5759-11.105-1.0221-0.80434-1.0555-0.84765-0.89172-1.1537 0.26456-0.49433 2.0927-2.2956 3.0661-3.0211 1.59-1.185 5.5851-3.012 8.318-3.804 1.1969-0.34684 1.7594-0.39749 1.8994-0.17101 0.24124 0.39034 0.04042 3.6233-0.52588 8.466-0.57792 4.942-1.0616 6.502-2.961 9.5505-1.3479 2.1634-1.9178 2.8101-2.0627 2.3408zm-33.169-2.2362c0-0.31181 0.02457-0.43937 0.0546-0.28346 0.03003 0.1559 0.03003 0.41102 0 0.56693-0.03003 0.15591-0.0546 0.02835-0.0546-0.28346zm0.11623-1.1969c0.0026-0.20787 0.0308-0.27766 0.06274-0.15508s0.02984 0.29266-0.0047 0.37795c-0.03451 0.0853-0.06065-0.015-0.05808-0.22287zm0.12132-0.8189c0-0.17323 0.0286-0.24409 0.06355-0.15748 0.03495 0.08661 0.03495 0.22835 0 0.31496-0.03495 0.08661-0.06355 0.01575-0.06355-0.15748zm0.11604-0.70341c6e-3 -0.14677 0.0359-0.17662 0.07612-0.07612 0.03639 0.09094 0.03192 0.19961-0.0099 0.24147-0.04186 0.04186-0.07164-0.03255-0.06617-0.16535zm0.12598-0.62992c6e-3 -0.14677 0.0359-0.17662 0.07611-0.07612 0.03639 0.09094 0.03192 0.19961-0.0099 0.24147-0.04186 0.04186-0.07164-0.03255-0.06617-0.16535zm9.6278-1.1781c-1.5287-0.37174-2.8796-1.6029-3.7721-3.4378-1.0373-2.1324-1.3991-4.1998-1.2958-7.4051 0.08245-2.5597 0.34494-3.9525 1.3454-7.1395 1.1146-3.5505 1.9157-5.3357 2.4396-5.4366 0.24748-0.04766 2.9388 2.5819 4.5396 4.4354 1.6357 1.8939 3.9943 5.5441 5.1141 7.9145 1.1795 2.4968 1.6153 4.3286 1.379 5.7958-0.3078 1.9113-1.5253 3.0012-4.8898 4.3773-0.86087 0.35211-1.8895 0.72424-2.2859 0.82695-0.75212 0.19489-1.927 0.22641-2.5741 0.06904zm-10.315-0.32811c-0.12157-0.31681-0.08571-0.39856 0.06281-0.14316 0.07354 0.12646 0.10716 0.25646 0.07473 0.2889-0.03244 0.03244-0.09433-0.03315-0.13753-0.14574zm-5.7715-1.656c0.09094-0.03639 0.19961-0.03192 0.24147 0.0099 0.04186 0.04186-0.03255 0.07164-0.16535 0.06617-0.14676-6e-3 -0.17662-0.0359-0.07612-0.07611zm1.6299 0.0026c0.08661-0.03495 0.22835-0.03495 0.31496 0 0.08661 0.03495 0.01575 0.06355-0.15748 0.06355-0.17323 0-0.2441-0.0286-0.15748-0.06355zm1.4278-0.34148c0.12964-0.116 0.87139-0.45687 0.87139-0.40044 0 0.07256-0.69843 0.44742-0.83364 0.44742-0.04964 0-0.06662-0.02114-0.03775-0.04697zm-4.9876-0.45774c-0.1258-0.13901-0.20545-0.27519-0.17701-0.30262 0.02845-0.02743 0.15358 0.0863 0.27807 0.25274 0.27495 0.36759 0.21377 0.39778-0.10107 0.04988zm0.50464-1.889c0.12542-0.13858 0.25638-0.25197 0.29102-0.25197 0.03465 0-0.03962 0.11338-0.16504 0.25197s-0.25638 0.25197-0.29102 0.25197c-0.03464 0 0.03962-0.11339 0.16504-0.25197zm0.50394-0.62992c0.12542-0.13858 0.25638-0.25197 0.29102-0.25197 0.03465 0-0.03962 0.11339-0.16504 0.25197s-0.25638 0.25197-0.29102 0.25197c-0.03465 0 0.03962-0.11338 0.16504-0.25197zm0.44094-0.5515c0-0.02616 0.09921-0.12537 0.22047-0.22047 0.19982-0.15671 0.20427-0.15225 0.04757 0.04757-0.16458 0.20986-0.26804 0.2766-0.26804 0.17291zm0.37795-0.50394c0-0.02616 0.09921-0.12537 0.22047-0.22047 0.19982-0.15671 0.20428-0.15225 0.04757 0.04757-0.16458 0.20986-0.26804 0.2766-0.26804 0.17291zm29.543-0.89859c-0.62362-0.30035-1.5307-0.64331-2.0157-0.76213-1.1833-0.28987-1.2673-0.34435-1.4902-0.96653-0.31529-0.87996-0.90367-2.2482-1.3283-3.0889-0.25333-0.50157-0.33987-0.78517-0.2384-0.78126 0.14817 0.0057 1.1641 0.72614 2.764 1.9601 0.91685 0.70713 3.0484 2.8329 3.4517 3.4423 0.29221 0.44156 0.32774 0.78534 0.07788 0.75358-0.04788-0.0061-0.59729-0.25681-1.2209-0.55716zm-29.165 0.39467c0-0.02616 0.09921-0.12537 0.22047-0.22047 0.19982-0.15671 0.20428-0.15225 0.04757 0.04757-0.16458 0.20986-0.26804 0.2766-0.26804 0.17291zm30.665-0.9918-0.24-0.28346 0.28346 0.24c0.15591 0.132 0.28346 0.25956 0.28346 0.28346 0 0.10082-0.10139 0.02639-0.32693-0.24zm-0.62588-0.75591-0.37003-0.40945 0.40945 0.37003c0.2252 0.20352 0.40945 0.38777 0.40945 0.40945 0 0.09733-0.10395 0.01164-0.44887-0.37003zm-1.2598-1.3858-0.37003-0.40945 0.40945 0.37003c0.38166 0.34492 0.46736 0.44887 0.37003 0.44887-0.02168 0-0.20593-0.18425-0.40945-0.40945zm-27.258 0.08399c6e-3 -0.14676 0.0359-0.17662 0.07612-0.07612 0.03639 0.09095 0.03192 0.19961-0.0099 0.24147-0.04187 0.04186-0.07164-0.03255-0.06617-0.16536zm0.1406-0.74541c0.0026-0.20787 0.0308-0.27766 0.06275-0.15508 0.03194 0.12258 0.02984 0.29266-0.0047 0.37795-0.03451 0.0853-0.06065-0.015-0.05808-0.22287zm25.408-0.7874c-0.15671-0.19982-0.15225-0.20428 0.04757-0.04757 0.12126 0.0951 0.22047 0.19431 0.22047 0.22047 0 0.10369-0.10346 0.03695-0.26804-0.1729zm-25.275-0.34646c0.0014-0.27717 0.0272-0.37572 0.05733-0.219s0.02899 0.38348-0.0025 0.50394c-0.03153 0.12045-0.05619-0.0078-0.05479-0.28493zm24.208-0.47244-0.24-0.28346 0.28346 0.24c0.1559 0.132 0.28346 0.25956 0.28346 0.28346 0 0.10082-0.10139 0.02639-0.32693-0.24zm-0.94898-0.69291c-0.15671-0.19982-0.15225-0.20428 0.04757-0.04757 0.20986 0.16458 0.2766 0.26804 0.17291 0.26804-0.02616 0-0.12537-0.09921-0.22047-0.22047zm-1.8352-1.2375-0.35348-0.32415 0.40945 0.28485c0.2252 0.15667 0.40945 0.30254 0.40945 0.32415 0 0.09944-0.13935 0.01416-0.46542-0.28485zm-1.3497-1.9121c-0.25575-0.39842-0.3332-0.56937-0.17213-0.37989 0.31799 0.37408 0.77386 1.1043 0.6894 1.1043-0.02875 0-0.26152-0.32598-0.51727-0.72441zm-15.319-1.4173c0.10394-0.06717 0.24567-0.12212 0.31496-0.12212 0.06929 0 0.04094 0.05496-0.06299 0.12212-0.10394 0.06717-0.24567 0.12213-0.31496 0.12213-0.06929 0-0.04095-0.05496 0.06299-0.12213zm14.094-0.34646c-0.15671-0.19982-0.15225-0.20428 0.04757-0.04757 0.20986 0.16458 0.2766 0.26804 0.17291 0.26804-0.02616 0-0.12537-0.09921-0.22047-0.22047zm-12.228-0.24354c0.09094-0.03639 0.19961-0.03192 0.24147 0.0099 0.04186 0.04186-0.03255 0.07164-0.16535 0.06617-0.14677-6e-3 -0.17662-0.0359-0.07612-0.07612zm0.68504-0.12677c0.12126-0.03169 0.31968-0.03169 0.44094 0s0.02205 0.05762-0.22047 0.05762c-0.24252 0-0.34173-0.02593-0.22047-0.05762zm11.106-0.19662-0.24-0.28346 0.28346 0.24c0.26639 0.22554 0.34082 0.32693 0.24 0.32693-0.02391 0-0.15147-0.12756-0.28346-0.28346zm-8.7174-0.01879c0.08935-0.09695 0.1823-0.15741 0.20656-0.13437 0.07473 0.07099-0.11466 0.31064-0.24549 0.31064-0.06793 0-0.05042-0.07932 0.03893-0.17627zm8.0915-0.73712-0.37003-0.40945 0.40945 0.37003c0.38166 0.34492 0.46736 0.44887 0.37003 0.44887-0.02168 0-0.20593-0.18425-0.40945-0.40945zm-0.81775-0.94488-0.43416-0.47244 0.47244 0.43416c0.25984 0.23879 0.47244 0.45139 0.47244 0.47244 0 0.0962-0.10661 0.0056-0.51072-0.43416z" fill="#f2760f" stroke-width=".12598"/>
<path d="m1.1885 38.1v-39.685h79.37v79.37h-79.37zm37.48 32c6.1407-0.55909 11.337-2.0768 14.74-4.305 1.1209-0.73396 2.3791-1.9129 2.2978-2.153-0.05792-0.17103 0.07714-0.17023-4.2506-0.02523-2.9048 0.09732-5.3609-0.01376-8.5669-0.38746-2.8887-0.33671-3.1255-0.43324-1.6693-0.68049 5.2083-0.88432 10.807-3.5994 14.331-6.9492 0.28187-0.26799 1.1799-0.8114 2.038-1.2332 4.8003-2.3596 8.1022-5.2021 9.2633-7.9743 0.23746-0.56696 0.28223-0.91628 0.29181-2.277l0.01131-1.6073 0.68011-0.86972c0.88444-1.131 2.2639-3.3348 2.8848-4.6086 0.95366-1.9566 1.337-3.7142 1.8978-8.7011 0.4228-3.7597 0.58702-6.3936 0.45396-7.281-0.07384-0.49241-0.14909-0.62037-0.4274-0.72676-0.65493-0.25037-2.8804 0.36388-5.8769 1.6221-2.9363 1.2329-4.1307 1.9096-5.7515 3.2585l-0.95984 0.79884-0.56382-0.84747c-0.72327-1.0871-1.9332-2.5815-2.6711-3.2989-0.31772-0.30892-0.57768-0.6292-0.57768-0.71175 0-0.08255 0.19747-0.44352 0.43882-0.80216 0.75777-1.126 1.2041-3.0054 1.4486-6.1002 0.45689-5.7826-0.39089-8.2652-2.8225-8.2652-1.4871 0-2.9807 0.87136-5.1546 3.0072-1.6384 1.6097-2.7879 3.0424-3.3765 4.2086l-0.38274 0.75819-1.5322-1.5128c-0.84269-0.83204-1.6723-1.6057-1.8437-1.7193-0.74273-0.4923-1.1561-0.13735-2.0216 1.7361-0.45357 0.98174-0.54229 1.0981-0.78974 1.036-0.15333-0.03848-1.1612-0.13167-2.2398-0.20709-2.9033-0.20302-6.3141 0.08695-8.9576 0.76154-0.53123 0.13556-0.99722 0.24647-1.0355 0.24647-0.03831 0-0.36466-0.43937-0.72522-0.97638-1.7858-2.6598-4.6482-5.7308-6.0018-6.4394-2.1373-1.1188-3.5985-0.38848-4.5023 2.2504-0.87423 2.5525-0.69028 8.3854 0.31578 10.013 0.13943 0.2256 0.25351 0.49463 0.25351 0.59783s-0.45083 0.59472-1.0018 1.0923c-3.1256 2.8223-5.7639 7.1347-6.8689 11.228-0.70916 2.6268-0.72223 2.8469-0.75168 12.66l-0.02722 9.0709 0.57676 0.55086c0.43844 0.41875 0.9842 0.72383 2.2756 1.2721l1.6989 0.72122 0.66666 1.1121c3.0259 5.0479 7.309 8.7429 12.653 10.916 1.7707 0.72003 4.3017 1.4014 5.9593 1.6044 0.62362 0.07635 1.2756 0.15928 1.4488 0.1843 0.68858 0.09947 3.4157 0.07258 4.7244-0.04658z" fill="#38363c" stroke-width=".12598"/>
</svg>
